<svg width="55" height="37" viewBox="0 0 55 37" fill="none" xmlns="http://www.w3.org/2000/svg">
<path fill-rule="evenodd" clip-rule="evenodd" d="M16.5058 9C20.6482 9.00338 24.0032 12.5877 24 17.0062C23.9968 21.4247 20.6366 25.0034 16.4942 25C12.3518 24.9966 8.99684 21.4123 9 16.9938C9.00316 12.5753 12.3634 8.99663 16.5058 9Z" fill="#F9C900"/>
<path fill-rule="evenodd" clip-rule="evenodd" d="M15 27.0936C15 27.1878 14.9896 27.282 14.9679 27.3774L13.8525 32.1909C13.7174 32.7738 13.2008 33.1189 12.6984 32.9622C12.195 32.8055 11.8975 32.2062 12.0325 31.6233L13.1479 26.8098C13.283 26.2269 13.7996 25.8817 14.3021 26.0373C14.7233 26.1688 15 26.6115 15 27.0936Z" fill="#F9C900"/>
<path fill-rule="evenodd" clip-rule="evenodd" d="M10 25.1793C10 25.4971 9.89888 25.8138 9.69853 26.0454L6.56677 29.6885C6.18759 30.1293 5.59682 30.0986 5.24759 29.62C4.89744 29.1414 4.92178 28.3958 5.30096 27.9538L8.43272 24.3119C8.81283 23.8711 9.40361 23.9007 9.75283 24.3804C9.91855 24.6061 10 24.8933 10 25.1793Z" fill="#F9C900"/>
<g clip-path="url(#clip0_40_27)">
<mask id="mask0_40_27" style="mask-type:luminance" maskUnits="userSpaceOnUse" x="0" y="19" width="13" height="7">
<path fill-rule="evenodd" clip-rule="evenodd" d="M0 19.7019V25.6716H12.3067V19.7019L0 19.7019L0 19.7019Z" fill="white"/>
</mask>
<g mask="url(#mask0_40_27)">
<path fill-rule="evenodd" clip-rule="evenodd" d="M12.3067 21.6049C12.3067 22.4506 11.7317 23.2201 10.8682 23.4411L2.39901 25.6106C1.37401 25.8735 0.32593 25.262 0.0605455 24.2468C-0.202916 23.2316 0.412469 22.1935 1.43939 21.9306L9.90862 19.763C10.9336 19.5001 11.9798 20.1097 12.2452 21.1268C12.2875 21.2868 12.3067 21.4468 12.3067 21.6049Z" fill="#F9C900"/>
</g>
</g>
<path fill-rule="evenodd" clip-rule="evenodd" d="M7 14.0436C7 14.1222 6.99063 14.2018 6.97 14.2823C6.84158 14.7933 6.33163 15.101 5.83199 14.9697L1.70176 13.8825C1.20212 13.7512 0.901208 13.2287 1.02963 12.7177C1.15806 12.2067 1.66801 11.899 2.16859 12.0303L6.29788 13.1175C6.71971 13.2287 7 13.617 7 14.0436Z" fill="#F9C900"/>
<path fill-rule="evenodd" clip-rule="evenodd" d="M10 8.84087C10 9.1316 9.91164 9.42232 9.73303 9.64676C9.36915 10.1073 8.76871 10.1189 8.39248 9.67351L5.28859 5.99293C4.91236 5.54754 4.90286 4.81375 5.26674 4.35324C5.63062 3.89273 6.23106 3.8811 6.60729 4.32649L9.71118 8.00591C9.90404 8.23384 10 8.53735 10 8.84087Z" fill="#F9C900"/>
<path fill-rule="evenodd" clip-rule="evenodd" d="M15 5.91111C15 6.3984 14.6112 6.84199 14.0294 6.96655C13.3419 7.11404 12.6429 6.76005 12.4704 6.17552L11.0389 1.35614C10.8664 0.771614 11.2835 0.180528 11.9709 0.0330292C12.6584 -0.113377 13.3574 0.24062 13.5299 0.824058L14.9614 5.64343C14.9871 5.73302 15 5.82261 15 5.91111Z" fill="#F9C900"/>
<path fill-rule="evenodd" clip-rule="evenodd" d="M21 1.09237C21 1.18432 20.993 1.27736 20.9791 1.3704L20.2455 6.18559C20.1567 6.76901 19.8103 7.1171 19.4721 6.96385C19.1345 6.81061 18.9321 6.21295 19.0209 5.63062L19.7544 0.814342C19.8433 0.23201 20.1897 -0.11717 20.5279 0.036075C20.8122 0.165239 21 0.607461 21 1.09237Z" fill="#F9C900"/>
<path fill-rule="evenodd" clip-rule="evenodd" d="M30 5.20248C30 5.53737 29.8718 5.87107 29.6208 6.10839L25.8266 9.70554C25.3678 10.1404 24.6702 10.0874 24.2711 9.58748C23.8708 9.08634 23.9195 8.32739 24.3794 7.8913L28.1736 4.29536C28.6324 3.85927 29.3289 3.91227 29.7291 4.41342C29.9116 4.6411 30 4.92299 30 5.20248Z" fill="#F9C900"/>
<path fill-rule="evenodd" clip-rule="evenodd" d="M34 12.9368C34 13.3476 33.6352 13.7237 33.0799 13.8381L27.5819 14.9663C26.915 15.1032 26.2268 14.8106 26.045 14.3117C25.862 13.8128 26.2531 13.2988 26.92 13.1619L32.418 12.0337C33.0849 11.8968 33.7719 12.1894 33.9549 12.6883C33.985 12.7708 34 12.8543 34 12.9368Z" fill="#F9C900"/>
<path fill-rule="evenodd" clip-rule="evenodd" d="M34 21.0436C34 21.1222 33.9875 21.2018 33.96 21.2823C33.7888 21.7933 33.1089 22.101 32.4427 21.9697L26.936 20.8825C26.2699 20.7512 25.8675 20.2296 26.0399 19.7177C26.2112 19.2067 26.8911 18.899 27.5585 19.0303L33.0639 20.1175C33.6263 20.2287 34 20.617 34 21.0436Z" fill="#F9C900"/>
<path fill-rule="evenodd" clip-rule="evenodd" d="M22 32.9081C22 33.3902 21.7235 33.8307 21.3037 33.9622C20.8017 34.1189 20.2846 33.7738 20.1497 33.1908L19.0325 28.378C18.8976 27.795 19.1948 27.1956 19.6968 27.0378C20.1988 26.8811 20.7158 27.2262 20.8508 27.8092L21.967 32.622C21.9896 32.7174 22 32.8138 22 32.9081Z" fill="#F9C900"/>
<path fill-rule="evenodd" clip-rule="evenodd" d="M49.5479 18.2828C52.5542 18.2828 55 20.9104 55 24.1425C55 27.3723 52.5542 30 49.5479 30H25.8426C22.07 30 19 26.7004 19 22.6449C19 18.5894 22.07 15.2898 25.8426 15.2898C26.5451 15.2898 27.2435 15.406 27.9157 15.6351L28.3552 15.7846L28.5097 15.3186C29.9586 10.9409 33.8303 8 38.1436 8C43.4172 8 47.7942 12.2459 48.3255 17.8776L48.3745 18.399L48.8589 18.3348C49.1261 18.2994 49.3453 18.2828 49.5479 18.2828Z" fill="#C8D0D6"/>
<path fill-rule="evenodd" clip-rule="evenodd" d="M10.2093 24.2175C6.78614 24.2175 4 27.0844 4 30.6093C4 34.132 6.78614 37 10.2093 37H37.2066C41.5047 37 45 33.4005 45 28.9762C45 24.552 41.5047 20.9525 37.2066 20.9525C36.407 20.9525 35.6117 21.0797 34.8455 21.3287L34.3462 21.4921L34.1697 20.9832C32.52 16.208 28.1099 13 23.1973 13C17.1914 13 12.2067 17.6326 11.6019 23.7755L11.5459 24.3447L10.9949 24.2745C10.6893 24.235 10.4396 24.2175 10.2093 24.2175Z" fill="#EDF3F9"/>
<defs>
<clipPath id="clip0_40_27">
<rect width="7" height="4" fill="white" transform="translate(0 19)"/>
</clipPath>
</defs>
</svg>
