<svg width="46" height="38" viewBox="0 0 46 38" fill="none" xmlns="http://www.w3.org/2000/svg">
<g id="Arrows-chevron/Arrow-up">
<g id="Icon">
<path d="M36.4167 20.5833C35.6532 20.5881 34.92 20.3367 34.3851 19.8867L23 10.4658L11.6534 19.855C10.9697 20.5928 9.82807 20.9335 8.73148 20.727C7.63489 20.5205 6.78477 19.8047 6.55572 18.895C6.32667 17.9854 6.76077 17.0489 7.66672 16.4983L21.0834 5.415C21.5995 5.0036 22.2831 4.76641 23 4.75C23.7623 4.75055 24.4931 5.00114 25.0317 5.44667L38.4484 16.53C39.5717 17.4627 39.5717 18.9698 38.4484 19.9025C37.909 20.3452 37.177 20.5905 36.4167 20.5833Z" fill="#5FE72F"/>
<path d="M23 33.25C21.4122 33.25 20.1251 32.1867 20.1251 30.875V7.125C20.1251 5.81332 21.4122 4.75 23 4.75C24.5879 4.75 25.875 5.81332 25.875 7.125V30.875C25.875 32.1867 24.5879 33.25 23 33.25Z" fill="#5FE72F"/>
</g>
</g>
</svg>
