<svg width="46" height="38" viewBox="0 0 46 38" fill="none" xmlns="http://www.w3.org/2000/svg">
<path d="M9.58334 17.4167C10.3469 17.4119 11.08 17.6633 11.615 18.1133L23 27.5342L34.3467 18.145C35.0303 17.4072 36.172 17.0665 37.2686 17.273C38.3652 17.4795 39.2153 18.1953 39.4443 19.105C39.6734 20.0146 39.2393 20.9511 38.3333 21.5017L24.9167 32.585C24.4006 32.9964 23.7169 33.2336 23 33.25C22.2378 33.2494 21.507 32.9989 20.9683 32.5533L7.55168 21.47C6.4284 20.5373 6.4284 19.0302 7.55168 18.0975C8.09107 17.6548 8.82303 17.4095 9.58334 17.4167Z" fill="#D91E41"/>
<path d="M23 4.75C24.5878 4.75 25.875 5.81332 25.875 7.125L25.875 30.875C25.875 32.1867 24.5878 33.25 23 33.25C21.4122 33.25 20.125 32.1867 20.125 30.875L20.125 7.125C20.125 5.81332 21.4122 4.75 23 4.75Z" fill="#D91E41"/>
</svg>
