<svg width="84" height="69" viewBox="0 0 84 69" fill="none" xmlns="http://www.w3.org/2000/svg">
<g clip-path="url(#clip0_19_1270)">
<path fill-rule="evenodd" clip-rule="evenodd" d="M23.1531 54.1921C23.1531 54.1921 20.3649 62.0071 21.097 65.0043C21.702 67.4841 24.1811 69.0187 26.6274 68.4271C29.0824 67.8334 30.5707 65.3361 29.9657 62.8584C29.2336 59.8591 23.1531 54.1921 23.1531 54.1921Z" fill="#C0EAF9"/>
<path fill-rule="evenodd" clip-rule="evenodd" d="M40.7439 53.958C40.7439 53.958 37.9557 61.773 38.6878 64.7723C39.2928 67.25 41.7719 68.7846 44.2181 68.193C46.6731 67.5992 48.1615 65.102 47.5565 62.6243C46.8244 59.6249 40.7439 53.958 40.7439 53.958Z" fill="#C0EAF9"/>
<path fill-rule="evenodd" clip-rule="evenodd" d="M56.9666 64.5272C57.5716 67.0071 60.0507 68.5417 62.4969 67.9501C64.9519 67.3563 66.4403 64.859 65.8331 62.3814C65.101 59.382 59.0227 53.7151 59.0227 53.7151C59.0227 53.7151 56.2345 61.53 56.9666 64.5272Z" fill="#C0EAF9"/>
<path fill-rule="evenodd" clip-rule="evenodd" d="M12.6474 23.0252C5.67479 23.0252 -0.000213623 28.7314 -0.000213623 35.7474C-0.000213623 42.759 5.67479 48.4674 12.6474 48.4674H67.6373C76.392 48.4674 83.5116 41.303 83.5116 32.497C83.5116 23.691 76.392 16.5266 67.6373 16.5266C66.0087 16.5266 64.3888 16.7798 62.8281 17.2753L61.8111 17.6006L61.4516 16.5877C58.0913 7.08312 49.1086 0.697998 39.1023 0.697998C26.8689 0.697998 16.7157 9.91877 15.4838 22.1455L15.3699 23.2784L14.2476 23.1387C13.6251 23.0601 13.1165 23.0252 12.6474 23.0252Z" fill="#EDF3F9"/>
</g>
<defs>
<clipPath id="clip0_19_1270">
<rect width="84" height="69" fill="white"/>
</clipPath>
</defs>
</svg>
