<svg width="48" height="40" viewBox="0 0 48 40" fill="none" xmlns="http://www.w3.org/2000/svg">
<path fill-rule="evenodd" clip-rule="evenodd" d="M11.9858 26C11.9858 26 10.7381 29.2776 11.0501 30.5292C11.3071 31.5644 12.3892 32.1986 13.4645 31.9436C14.5418 31.6877 15.2022 30.6393 14.9442 29.6042C14.6332 28.3517 11.9858 26 11.9858 26Z" fill="#C0EAF9"/>
<path fill-rule="evenodd" clip-rule="evenodd" d="M18.9858 25C18.9858 25 17.7381 28.8239 18.0501 30.2841C18.3071 31.4918 19.3892 32.2317 20.4645 31.9342C21.5418 31.6356 22.2022 30.4126 21.9442 29.2049C21.6332 27.7436 18.9858 25 18.9858 25Z" fill="#C0EAF9"/>
<path fill-rule="evenodd" clip-rule="evenodd" d="M27.7394 25C27.7394 25 26.8036 28.8239 27.0375 30.2841C27.2303 31.4918 28.0419 32.2317 28.8484 31.9342C29.6563 31.6356 30.1516 30.4126 29.9581 29.2049C29.7249 27.7436 27.7394 25 27.7394 25Z" fill="#C0EAF9"/>
<path fill-rule="evenodd" clip-rule="evenodd" d="M35.2323 25C35.2323 25 33.6727 28.8239 34.0626 30.2841C34.3839 31.4918 35.7365 32.2317 37.0806 31.9342C38.4272 31.6356 39.2527 30.4126 38.9302 29.2049C38.5415 27.7436 35.2323 25 35.2323 25Z" fill="#C0EAF9"/>
<path fill-rule="evenodd" clip-rule="evenodd" d="M16.9858 33C16.9858 33 15.7381 36.8239 16.0501 38.2841C16.3071 39.4918 17.3892 40.2317 18.4645 39.9342C19.5418 39.6356 20.2022 38.4126 19.9442 37.2049C19.6332 35.7436 16.9858 33 16.9858 33Z" fill="#C0EAF9"/>
<path fill-rule="evenodd" clip-rule="evenodd" d="M26.2323 33C26.2323 33 24.6727 36.8239 25.0626 38.2841C25.3839 39.4918 26.7365 40.2317 28.0806 39.9342C29.4272 39.6356 30.2527 38.4126 29.9302 37.2049C29.5415 35.7436 26.2323 33 26.2323 33Z" fill="#C0EAF9"/>
<path fill-rule="evenodd" clip-rule="evenodd" d="M34.9858 33C34.9858 33 33.7381 36.2776 34.0501 37.5292C34.3071 38.5644 35.3892 39.1986 36.4645 38.9436C37.5418 38.6877 38.2022 37.6393 37.9442 36.6042C37.6332 35.3517 34.9858 33 34.9858 33Z" fill="#C0EAF9"/>
<path fill-rule="evenodd" clip-rule="evenodd" d="M42.6993 11.8154C45.6221 11.8154 48 14.3236 48 17.4087C48 20.4917 45.6221 23 42.6993 23H19.6525C15.9847 23 13 19.8504 13 15.9792C13 12.108 15.9847 8.95844 19.6525 8.95844C20.3355 8.95844 21.0145 9.06938 21.668 9.28809L22.0953 9.43072L22.2455 8.98591C23.6542 4.80725 27.4183 2 31.6118 2C36.7389 2 40.9943 6.05293 41.5109 11.4287L41.5586 11.9263L42.0295 11.865C42.2893 11.8312 42.5024 11.8154 42.6993 11.8154Z" fill="#C8D0D6"/>
<path fill-rule="evenodd" clip-rule="evenodd" d="M5.90645 10.7501C2.65023 10.7501 0 13.4975 0 16.8756C0 20.2515 2.65023 23 5.90645 23H31.5867C35.6752 23 39 19.5505 39 15.3106C39 11.0706 35.6752 7.62112 31.5867 7.62112C30.8262 7.62112 30.0697 7.74304 29.3408 7.98163L28.8659 8.13823L28.698 7.65055C27.1287 3.0743 22.9338 0 18.2609 0C12.5479 0 7.80635 4.43961 7.23106 10.3265L7.17783 10.872L6.65372 10.8047C6.363 10.7669 6.12551 10.7501 5.90645 10.7501Z" fill="#EDF3F9"/>
</svg>
