<svg width="100" height="84" viewBox="0 0 100 84" fill="none" xmlns="http://www.w3.org/2000/svg">
<g clip-path="url(#clip0_19_1277)">
<path fill-rule="evenodd" clip-rule="evenodd" d="M75.8955 52.492C77.2354 52.4671 78.0476 53.9538 77.2705 55.0527C73.8876 59.8321 64.6854 69.0362 44.7019 67.3421C44.7019 67.3421 15.9903 63.7737 14.7514 31.2576C14.7514 31.2576 13.597 12.3103 31.7788 1.08458C33.1043 0.267637 34.7473 1.48683 34.37 3.00254C31.2037 15.7502 26.4088 53.4105 75.8955 52.492Z" fill="#C6DAE5"/>
<path fill-rule="evenodd" clip-rule="evenodd" d="M31.8897 35.1162C32.3041 38.6079 29.8242 41.7741 26.3548 42.1908C22.8833 42.6076 19.7335 40.1132 19.3212 36.6236C18.9068 33.1319 21.3847 29.9636 24.8561 29.5489C28.3276 29.1322 31.4754 31.6245 31.8897 35.1162Z" fill="#9BB4C6"/>
<path fill-rule="evenodd" clip-rule="evenodd" d="M40.3919 53.7448C40.7052 56.3843 38.8314 58.7771 36.2072 59.0922C33.583 59.4074 31.2041 57.5226 30.8908 54.8831C30.5774 52.2436 32.4513 49.8508 35.0755 49.5356C37.6997 49.2205 40.0785 51.1052 40.3919 53.7448Z" fill="#9BB4C6"/>
<path fill-rule="evenodd" clip-rule="evenodd" d="M49.8396 53.4164C50.0994 55.6184 48.5368 57.6151 46.3496 57.8764C44.1604 58.1397 42.1752 56.568 41.9155 54.366C41.6537 52.1661 43.2162 50.1673 45.4055 49.906C47.5927 49.6427 49.5778 51.2144 49.8396 53.4164Z" fill="#9BB4C6"/>
<path fill-rule="evenodd" clip-rule="evenodd" d="M65.5391 57.5494C65.7349 59.2082 64.5578 60.7135 62.9087 60.9125C61.2595 61.1095 59.7629 59.9235 59.5651 58.2647C59.3692 56.606 60.5463 55.1006 62.1954 54.9036C63.8466 54.7046 65.3432 55.8906 65.5391 57.5494Z" fill="#9BB4C6"/>
<path fill-rule="evenodd" clip-rule="evenodd" d="M30.5496 21.9305C30.7454 23.5893 29.5683 25.0946 27.9192 25.2936C26.27 25.4906 24.7734 24.3046 24.5756 22.6458C24.3797 20.9871 25.5568 19.4817 27.2059 19.2847C28.8571 19.0857 30.3537 20.2717 30.5496 21.9305Z" fill="#9BB4C6"/>
<path fill-rule="evenodd" clip-rule="evenodd" d="M88.6201 47.7603C94.557 47.7603 99.3869 52.6827 99.3869 58.7372C99.3869 64.7876 94.557 69.71 88.6201 69.71H41.8071C34.357 69.71 28.2944 63.529 28.2944 55.9318C28.2944 48.3346 34.357 42.1536 41.8071 42.1536C43.1944 42.1536 44.5735 42.3714 45.9011 42.8006L46.7689 43.0805L47.074 42.2076C49.9353 34.007 57.5811 28.4978 66.0989 28.4978C76.5133 28.4978 85.1569 36.4516 86.2061 47.0014L86.303 47.978L87.2595 47.8577C87.7873 47.7914 88.2202 47.7603 88.6201 47.7603Z" fill="#C8D0D6"/>
<path fill-rule="evenodd" clip-rule="evenodd" d="M11.8942 59.1788C5.33683 59.1788 -0.000213623 64.5989 -0.000213623 71.263C-0.000213623 77.923 5.33683 83.3451 11.8942 83.3451H63.6094C71.8427 83.3451 78.5382 76.54 78.5382 68.1756C78.5382 59.8112 71.8427 53.0061 63.6094 53.0061C62.0777 53.0061 60.5543 53.2466 59.0866 53.7173L58.1301 54.0263L57.792 53.0642C54.6318 44.0363 46.1841 37.9714 36.7736 37.9714C25.2688 37.9714 15.7203 46.7298 14.5617 58.3432L14.4545 59.4194L13.3991 59.2867C12.8136 59.212 12.3354 59.1788 11.8942 59.1788Z" fill="#EDF3F9"/>
</g>
<defs>
<clipPath id="clip0_19_1277">
<rect width="100" height="84" fill="white"/>
</clipPath>
</defs>
</svg>
