<svg width="66" height="70" viewBox="0 0 66 70" fill="none" xmlns="http://www.w3.org/2000/svg">
<g clip-path="url(#clip0_19_1288)">
<path fill-rule="evenodd" clip-rule="evenodd" d="M20.6246 2.39156C17.3056 15.5995 12.2795 54.6198 64.1519 53.6681C65.5564 53.6423 66.4078 55.1827 65.5932 56.3213C62.0473 61.2732 52.4014 70.8097 31.4546 69.0545C31.4546 69.0545 1.35881 65.3572 0.0601625 31.667C0.0601625 31.667 -1.14989 12.0354 17.9084 0.404348C19.2978 -0.442097 21.02 0.821126 20.6246 2.39156Z" fill="#C6DAE5"/>
<path fill-rule="evenodd" clip-rule="evenodd" d="M12.2229 42.9952C8.58413 43.427 5.28241 40.8425 4.85025 37.2269C4.41593 33.6091 7.01322 30.3264 10.652 29.8968C14.2908 29.4649 17.5904 32.0472 18.0247 35.665C18.459 39.2828 15.8596 42.5634 12.2229 42.9952Z" fill="#9BB4C6"/>
<path fill-rule="evenodd" clip-rule="evenodd" d="M26.9367 54.9661C27.2652 57.701 25.301 60.1801 22.5503 60.5067C19.7996 60.8332 17.306 58.8804 16.9776 56.1456C16.6491 53.4107 18.6133 50.9315 21.364 50.605C24.1147 50.2784 26.6083 52.2313 26.9367 54.9661Z" fill="#9BB4C6"/>
<path fill-rule="evenodd" clip-rule="evenodd" d="M36.8399 54.6257C37.1122 56.9073 35.4743 58.9761 33.1817 59.2468C30.8869 59.5196 28.8061 57.8912 28.5338 55.6097C28.2594 53.3303 29.8973 51.2593 32.192 50.9886C34.4847 50.7157 36.5655 52.3442 36.8399 54.6257Z" fill="#9BB4C6"/>
<path fill-rule="evenodd" clip-rule="evenodd" d="M53.2962 58.9082C53.5015 60.6268 52.2677 62.1865 50.539 62.3928C48.8104 62.5969 47.2416 61.368 47.0342 59.6493C46.8289 57.9307 48.0627 56.371 49.7914 56.1669C51.5222 55.9606 53.0909 57.1895 53.2962 58.9082Z" fill="#9BB4C6"/>
<path fill-rule="evenodd" clip-rule="evenodd" d="M16.6199 22.0034C16.8252 23.722 15.5914 25.2817 13.8627 25.488C12.1341 25.6921 10.5654 24.4632 10.3579 22.7446C10.1526 21.0259 11.3865 19.4662 13.1151 19.2621C14.8459 19.0559 16.4147 20.2847 16.6199 22.0034Z" fill="#9BB4C6"/>
<path fill-rule="evenodd" clip-rule="evenodd" d="M42.3986 16.8381C44.0732 16.8381 44.782 22.1273 45.6204 22.9115C46.4588 23.6956 51.8478 22.4066 52.4269 24.0823C53.006 25.7559 48.1399 27.988 47.6105 29.0042C47.0811 30.0203 50.0738 34.7961 48.5958 35.8015C47.1178 36.8069 43.5503 32.7702 42.3986 32.7702C41.2469 32.7702 37.6168 36.9143 36.2014 35.8015C34.7861 34.6887 37.714 30.0203 37.1846 29.0042C36.6574 27.988 31.7826 25.7365 32.3703 24.0823C32.958 22.426 38.3385 23.6956 39.1769 22.9115C40.0152 22.1273 40.724 16.8381 42.3986 16.8381Z" fill="#F9C900"/>
<path fill-rule="evenodd" clip-rule="evenodd" d="M52.4747 1.67114C53.581 1.67114 54.0478 5.16219 54.6009 5.67994C55.1541 6.19769 58.7086 5.3448 59.0911 6.45119C59.4735 7.55544 56.2647 9.0292 55.9147 9.69948C55.5646 10.3698 57.5396 13.5214 56.5651 14.1852C55.5884 14.849 53.2353 12.1851 52.4747 12.1851C51.7141 12.1851 49.3199 14.9199 48.3843 14.1852C47.4508 13.4505 49.3847 10.3698 49.0347 9.69948C48.6846 9.0292 45.4693 7.54255 45.8583 6.45119C46.2451 5.35984 49.7953 6.19769 50.3485 5.67994C50.9016 5.16219 51.3705 1.67114 52.4747 1.67114Z" fill="#F9C900"/>
</g>
<defs>
<clipPath id="clip0_19_1288">
<rect width="66" height="70" fill="white"/>
</clipPath>
</defs>
</svg>
