<svg width="100" height="56" viewBox="0 0 100 56" fill="none" xmlns="http://www.w3.org/2000/svg">
<g clip-path="url(#clip0_19_1237)">
<path fill-rule="evenodd" clip-rule="evenodd" d="M88.6201 20.0379C94.557 20.0379 99.3869 24.906 99.3869 30.8937C99.3869 36.8773 94.557 41.7454 88.6201 41.7454H41.8071C34.357 41.7454 28.2944 35.6326 28.2944 28.1193C28.2944 20.6059 34.357 14.4932 41.8071 14.4932C43.1944 14.4932 44.5735 14.7085 45.9011 15.1329L46.7689 15.4098L47.074 14.5465C49.9353 6.43643 57.5811 0.988037 66.0989 0.988037C76.5133 0.988037 85.1569 8.85407 86.2061 19.2874L86.303 20.2532L87.2595 20.1343C87.7873 20.0687 88.2202 20.0379 88.6201 20.0379Z" fill="#C8D0D6"/>
<path fill-rule="evenodd" clip-rule="evenodd" d="M11.8942 31.3305C5.33683 31.3305 -0.000213623 36.6907 -0.000213623 43.2813C-0.000213623 49.8678 5.33683 55.23 11.8942 55.23H63.6094C71.8427 55.23 78.5382 48.5 78.5382 40.228C78.5382 31.9559 71.8427 25.2259 63.6094 25.2259C62.0777 25.2259 60.5543 25.4638 59.0866 25.9293L58.1301 26.2348L57.792 25.2834C54.6318 16.3551 46.1841 10.3572 36.7736 10.3572C25.2688 10.3572 15.7203 19.0188 14.5617 30.5041L14.4545 31.5684L13.3991 31.4372C12.8136 31.3633 12.3354 31.3305 11.8942 31.3305Z" fill="#EDF3F9"/>
</g>
<defs>
<clipPath id="clip0_19_1237">
<rect width="100" height="56" fill="white"/>
</clipPath>
</defs>
</svg>
