<svg width="70" height="69" viewBox="0 0 70 69" fill="none" xmlns="http://www.w3.org/2000/svg">
<path fill-rule="evenodd" clip-rule="evenodd" d="M35.5777 19.0601C44.2093 19.0667 51.2006 26.0673 51.1939 34.6967C51.1872 43.326 44.1849 50.3154 35.5532 50.3088C26.9215 50.3021 19.9302 43.3016 19.9369 34.6722C19.9436 26.0428 26.946 19.0534 35.5777 19.0601Z" fill="#F9C900"/>
<path fill-rule="evenodd" clip-rule="evenodd" d="M31.851 55.5247C31.851 55.7117 31.8265 55.903 31.7754 56.0922L29.1823 65.7385C28.8684 66.9067 27.6665 67.601 26.498 67.2872C25.3294 66.9735 24.635 65.7719 24.951 64.6014L27.5441 54.9551C27.8579 53.7868 29.0599 53.0948 30.2284 53.4086C31.2078 53.6711 31.851 54.5568 31.851 55.5247Z" fill="#F9C900"/>
<path fill-rule="evenodd" clip-rule="evenodd" d="M20.9944 51.5643C20.9944 52.154 20.7563 52.7437 20.2888 53.1754L12.9415 59.9423C12.0511 60.7634 10.6645 60.7055 9.84536 59.8154C9.02404 58.9276 9.07968 57.5413 9.97001 56.7201L17.3174 49.951C18.2077 49.1322 19.5944 49.19 20.4135 50.0779C20.803 50.5007 20.9944 51.0325 20.9944 51.5643Z" fill="#F9C900"/>
<path fill-rule="evenodd" clip-rule="evenodd" d="M15.0564 40.9286C15.0564 41.9032 14.3998 42.7911 13.4138 43.047L3.7404 45.5459C2.5674 45.8485 1.37214 45.1454 1.06943 43.9727C0.766723 42.8022 1.47008 41.6073 2.64308 41.3046L12.3164 38.8035C13.4872 38.5009 14.6825 39.2063 14.9852 40.3767C15.0341 40.5614 15.0564 40.7461 15.0564 40.9286Z" fill="#F9C900"/>
<path fill-rule="evenodd" clip-rule="evenodd" d="M15.364 28.6558C15.364 28.8361 15.3418 29.0185 15.295 29.201C14.9923 30.3737 13.7971 31.0791 12.6263 30.7765L2.9507 28.2864C1.7777 27.986 1.07212 26.7911 1.37483 25.6206C1.67531 24.448 2.87057 23.7426 4.04357 24.0452L13.7192 26.5352C14.7074 26.7889 15.364 27.679 15.364 28.6558Z" fill="#F9C900"/>
<path fill-rule="evenodd" clip-rule="evenodd" d="M20.9403 17.9891C20.9403 18.5365 20.7356 19.0861 20.3238 19.5112C19.4824 20.379 18.0935 20.4035 17.2255 19.5601L10.0472 12.613C9.17917 11.7719 9.15468 10.3833 9.99826 9.51548C10.8396 8.64542 12.2263 8.62317 13.0966 9.4643L20.2726 16.4137C20.7177 16.8431 20.9403 17.415 20.9403 17.9891Z" fill="#F9C900"/>
<path fill-rule="evenodd" clip-rule="evenodd" d="M31.1198 11.8985C31.1198 12.8776 30.4565 13.7699 29.4638 14.0191C28.2908 14.3151 27.1 13.603 26.804 12.4303L24.3623 2.74397C24.0663 1.56905 24.7785 0.380789 25.9515 0.0848352C27.1245 -0.211118 28.3153 0.50095 28.6114 1.67364L31.0531 11.36C31.0976 11.5402 31.1198 11.7205 31.1198 11.8985Z" fill="#F9C900"/>
<path fill-rule="evenodd" clip-rule="evenodd" d="M45.789 2.92634C45.789 3.11104 45.7645 3.29795 45.7156 3.48265L43.1759 13.1445C42.8688 14.3128 41.6713 15.0137 40.5005 14.7044C39.3297 14.3973 38.6308 13.1979 38.938 12.0297L41.4776 2.37004C41.7848 1.19958 42.9845 0.500857 44.1553 0.807937C45.1391 1.06606 45.789 1.95392 45.789 2.92634Z" fill="#F9C900"/>
<path fill-rule="evenodd" clip-rule="evenodd" d="M61.6779 11.267C61.6779 11.8789 61.422 12.4864 60.9256 12.9181L53.3868 19.4758C52.4742 20.268 51.0898 20.1723 50.2952 19.26C49.5006 18.3476 49.5963 16.9635 50.5111 16.1691L58.0477 9.61366C58.9625 8.81926 60.3447 8.91494 61.1393 9.82728C61.5021 10.2434 61.6779 10.7574 61.6779 11.267Z" fill="#F9C900"/>
<path fill-rule="evenodd" clip-rule="evenodd" d="M69.4471 25.8865C69.4471 26.8478 68.8083 27.7289 67.8356 27.996L58.2001 30.6395C57.0338 30.9599 55.8274 30.2724 55.5069 29.1063C55.1864 27.9381 55.8741 26.7343 57.0405 26.4138L66.676 23.7703C67.8423 23.4521 69.0487 24.1374 69.3692 25.3035C69.4226 25.4993 69.4471 25.6951 69.4471 25.8865Z" fill="#F9C900"/>
<path fill-rule="evenodd" clip-rule="evenodd" d="M69.2815 42.9652C69.2815 43.1454 69.2592 43.3279 69.2125 43.5103C68.9098 44.683 67.7145 45.3884 66.5438 45.0858L56.8682 42.5958C55.6952 42.2954 54.9896 41.1004 55.2923 39.93C55.5928 38.7573 56.7881 38.0519 57.9611 38.3545L67.6366 40.8445C68.6249 41.0982 69.2815 41.9883 69.2815 42.9652Z" fill="#F9C900"/>
<path fill-rule="evenodd" clip-rule="evenodd" d="M61.099 58.0064C61.099 58.5738 60.8786 59.1435 60.4402 59.5707C59.5743 60.4163 58.1876 60.4007 57.3418 59.5351L50.3573 52.3944C49.5115 51.5288 49.5248 50.1425 50.3906 49.2969C51.2565 48.4513 52.6432 48.4669 53.489 49.3303L60.4735 56.4732C60.892 56.9005 61.099 57.4523 61.099 58.0064Z" fill="#F9C900"/>
<path fill-rule="evenodd" clip-rule="evenodd" d="M46.0141 66.0848C46.0141 67.0506 45.3686 67.934 44.3914 68.1965C43.2229 68.5125 42.021 67.8205 41.7071 66.6522L39.1074 57.0082C38.7913 55.8399 39.4835 54.6361 40.6521 54.3223C41.8206 54.0063 43.0226 54.6984 43.3386 55.8666L45.9384 65.5129C45.9896 65.7043 46.0141 65.8957 46.0141 66.0848Z" fill="#F9C900"/>
</svg>
