<svg width="100" height="83" viewBox="0 0 100 83" fill="none" xmlns="http://www.w3.org/2000/svg">
<g clip-path="url(#clip0_19_1205)">
<path fill-rule="evenodd" clip-rule="evenodd" d="M62.9447 51.2432C62.9447 51.2432 60.2 58.7157 60.8936 61.5759C61.4681 63.9374 63.8638 65.3889 66.2383 64.8113C68.6191 64.2316 70.0745 61.8402 69.5021 59.4787C68.8085 56.6205 62.9447 51.2432 62.9447 51.2432Z" fill="#C0EAF9"/>
<path fill-rule="evenodd" clip-rule="evenodd" d="M79.9981 50.9265C79.9981 50.9265 77.2534 58.399 77.947 61.2571C78.5215 63.6208 80.9172 65.0722 83.2917 64.4946C85.6725 63.9149 87.1279 61.5236 86.5555 59.162C85.8619 56.3039 79.9981 50.9265 79.9981 50.9265Z" fill="#C0EAF9"/>
<path fill-rule="evenodd" clip-rule="evenodd" d="M14.3849 52.2007C14.3849 52.2007 11.6402 59.6732 12.3338 62.5313C12.9083 64.895 15.304 66.3464 17.6785 65.7688C20.0594 65.1891 21.5147 62.7977 20.9423 60.4362C20.2487 57.5781 14.3849 52.2007 14.3849 52.2007Z" fill="#C0EAF9"/>
<path fill-rule="evenodd" clip-rule="evenodd" d="M26.2074 68.4524C26.2074 68.4524 23.45 75.8759 24.1394 78.7105C24.7074 81.055 27.0989 82.4916 29.4755 81.914C31.8564 81.3342 33.316 78.9599 32.7457 76.6154C32.0585 73.7786 26.2074 68.4524 26.2074 68.4524Z" fill="#C0EAF9"/>
<path fill-rule="evenodd" clip-rule="evenodd" d="M56.6877 67.4756C56.6877 67.4756 53.9302 74.8991 54.6196 77.7337C55.1877 80.0782 57.5792 81.5147 59.9557 80.9372C62.3366 80.3574 63.7962 77.9831 63.226 75.6386C62.5387 72.8018 56.6877 67.4756 56.6877 67.4756Z" fill="#C0EAF9"/>
<path fill-rule="evenodd" clip-rule="evenodd" d="M74.7087 66.6431C74.7087 66.6431 71.9513 74.0665 72.6406 76.9012C73.2087 79.2457 75.6002 80.6822 77.9768 80.1046C80.3577 79.5249 81.8172 77.1506 81.247 74.8061C80.5598 71.9693 74.7087 66.6431 74.7087 66.6431Z" fill="#C0EAF9"/>
<path fill-rule="evenodd" clip-rule="evenodd" d="M28.3457 56.8844H42.3734L41.633 54.8234C40.2947 51.0978 39.0798 47.7217 38.6968 46.6646C38.0585 44.8998 38.033 43.5272 38.6266 42.7003C39.1117 42.0225 39.8819 41.8818 40.0606 41.8818H44.3074C46.9691 41.8818 48.5947 44.5396 49.1755 46.8138C49.3564 47.5235 49.567 48.3398 49.7968 49.2328C50.7223 52.822 51.9904 57.739 52.8713 61.5733C53.4947 64.2865 52.8798 65.4225 52.5862 65.7849C52.3138 66.1216 51.9351 66.2836 51.4266 66.2836H36.8287L41.9393 80.879C42.1755 81.5504 42.1393 81.9212 42.0968 82.0385C41.9032 82.0662 41.2074 81.9063 40.5798 81.0048C37.6074 76.7314 30.1159 65.6804 26.8457 60.6483C26.0542 59.4292 25.8032 58.4253 26.1393 57.82C26.4457 57.2701 27.3521 56.8844 28.3457 56.8844Z" fill="#F9C900"/>
<path fill-rule="evenodd" clip-rule="evenodd" d="M88.073 24.89C94.2006 24.89 99.1857 29.9498 99.1857 36.1734C99.1857 42.3926 94.2006 47.4524 88.073 47.4524H39.756C32.0666 47.4524 25.8091 41.0989 25.8091 33.2896C25.8091 25.4804 32.0666 19.1269 39.756 19.1269C41.1879 19.1269 42.6113 19.3507 43.9815 19.7919L44.8772 20.0796L45.1921 19.1823C48.1453 10.7528 56.0368 5.08984 64.8283 5.08984C75.5772 5.08984 84.4985 13.2657 85.5815 24.11L85.6815 25.1138L86.6687 24.9902C87.2134 24.922 87.6602 24.89 88.073 24.89Z" fill="#EDF3F9"/>
<path fill-rule="evenodd" clip-rule="evenodd" d="M12.2764 22.6773C5.5083 22.6773 -0.000213623 28.2486 -0.000213623 35.0988C-0.000213623 41.9447 5.5083 47.5181 12.2764 47.5181H65.653C74.1508 47.5181 81.0615 40.523 81.0615 31.9252C81.0615 23.3274 74.1508 16.3323 65.653 16.3323C64.0721 16.3323 62.4998 16.5795 60.9849 17.0634L59.9977 17.3809L59.6487 16.392C56.387 7.11211 47.6679 0.87793 37.9551 0.87793C26.0806 0.87793 16.2253 9.88072 15.0296 21.8184L14.9189 22.9245L13.8296 22.7881C13.2253 22.7114 12.7317 22.6773 12.2764 22.6773Z" fill="#C8D0D6"/>
</g>
<defs>
<clipPath id="clip0_19_1205">
<rect width="100" height="83" fill="white"/>
</clipPath>
</defs>
</svg>
